<?xml version="1.0" encoding="utf-8"?>
<svg xmlns="http://www.w3.org/2000/svg" xmlns:xlink="http://www.w3.org/1999/xlink">
    <symbol xmlns="http://www.w3.org/2000/svg" id="git" viewBox="0 0 50 50">
        <path d="M30.5 24.5c-1.031 0-2.016.188-3.047.328-.812.125-1.625.172-2.453.172s-1.641-.047-2.453-.172c-1.016-.14-2.016-.328-3.047-.328-2.547 0-4 2.109-4 4.5 0 4.781 4.375 5.516 8.188 5.516h2.625c3.813 0 8.188-.734 8.188-5.516-.001-2.391-1.454-4.5-4.001-4.5zM20 32c-1.406 0-2-1.859-2-3s.594-3 2-3 2 1.859 2 3-.594 3-2 3zm10 0c-1.406 0-2-1.859-2-3s.594-3 2-3 2 1.859 2 3-.594 3-2 3z"/>
        <path d="M25 0C11.192 0 0 11.193 0 25s11.192 25 25 25 25-11.193 25-25S38.808 0 25 0zm12.047 31.422C34.984 35.594 29.313 36 25.25 36c-4.125 0-10.141-.359-12.281-4.578-.797-1.578-.969-3.438-.969-5.172 0-2.281.625-4.438 2.125-6.188a8.59 8.59 0 0 1-.422-2.656c0-1.172.266-2.344.797-3.406 2.469 0 4.047 1.078 5.922 2.547A20.895 20.895 0 0 1 25.25 16c1.469 0 2.953.156 4.375.5 1.859-1.453 3.438-2.5 5.875-2.5a7.629 7.629 0 0 1 .797 3.406c0 .891-.141 1.781-.422 2.625C37.375 21.797 38 23.969 38 26.25c0 1.734-.172 3.578-.953 5.172z"/>
    </symbol>
    <symbol xmlns="http://www.w3.org/2000/svg" id="in" viewBox="0 0 50 50">
        <path d="M25 0C11.192 0 0 11.193 0 25s11.192 25 25 25 25-11.193 25-25S38.808 0 25 0zm-5.547 34.136h-5.156V18.651h5.156v15.485zm-2.578-17.594h-.031C15.11 16.542 14 15.354 14 13.87c0-1.516 1.156-2.672 2.906-2.672 1.766 0 2.859 1.156 2.875 2.672.016 1.484-1.109 2.672-2.906 2.672zM38 34.136h-5.141v-8.281c0-2.078-.75-3.5-2.609-3.5-1.422 0-2.266.953-2.641 1.875-.125.344-.172.797-.172 1.266v8.641h-5.141c.063-14.031 0-15.484 0-15.484h5.141v2.204c.678-1.061 1.898-2.563 4.641-2.563 3.391 0 5.922 2.219 5.922 6.969v8.873z"/>
    </symbol>
    <symbol xmlns="http://www.w3.org/2000/svg" id="vk" viewBox="0 0 50 50">
        <path d="M25 0C11.193 0 0 11.193 0 25s11.193 25 25 25 25-11.193 25-25S38.807 0 25 0zm11.76 28.255c2.406 2.234 2.906 3.313 2.984 3.453 0 0 1 1.75-1.109 1.766l-4 .063c-.859.172-2-.609-2-.609-1.5-1.031-2.906-3.703-4-3.359 0 0-1.125.359-1.094 2.766.016.516-.234.797-.234.797s-.281.297-.828.344h-1.797c-3.953.25-7.438-3.391-7.438-3.391s-3.813-3.938-7.156-11.797c-.219-.516.016-.766.016-.766s.234-.297.891-.297l4.281-.031c.406.063.688.281.688.281s.25.172.375.5c.703 1.75 1.609 3.344 1.609 3.344 1.563 3.219 2.625 3.766 3.234 3.438 0 0 .797-.484.625-4.375-.063-1.406-.453-2.047-.453-2.047-.359-.484-1.031-.625-1.328-.672-.234-.031.156-.594.672-.844.766-.375 2.125-.391 3.734-.375 1.266.016 1.625.094 2.109.203 1.484.359.984 1.734.984 5.047 0 1.063-.203 2.547.563 3.031.328.219 1.141.031 3.141-3.375 0 0 .938-1.625 1.672-3.516.125-.344.391-.484.391-.484s.25-.141.594-.094l4.5-.031c1.359-.172 1.578.453 1.578.453.234.641-.5 2.141-2.344 4.594-3.032 4.03-3.36 3.655-.86 5.983z"/>
    </symbol>
    <symbol xmlns="http://www.w3.org/2000/svg" id="log" viewBox="0 0 50 50">
	<path fill="#C4CBCD" d="M11.456,15.422H2.681C1.084,15.422,0,14.448,0,12.821c0-2.269,0.532-5.753,3.474-5.753
		c0.312,0,1.627,1.396,3.595,1.396s3.283-1.396,3.595-1.396c2.941,0,3.474,3.484,3.474,5.753
		C14.137,14.448,13.053,15.422,11.456,15.422z M7.068,7.711c-2.129,0-3.855-1.727-3.855-3.855S4.939,0,7.068,0
		s3.855,1.727,3.855,3.855S9.197,7.711,7.068,7.711z"/>
    </symbol>
    <symbol xmlns="http://www.w3.org/2000/svg" id="pass" viewBox="0 0 50 50">
	<path fill="#C4CBCD" d="M15.743,12.078c-0.261,0-1.074-0.943-1.285-1.154l-0.964,0.964l2.209,2.209
		c0.181,0.181,0.281,0.432,0.281,0.683c0,0.563-0.643,1.205-1.205,1.205c-0.251,0-0.502-0.101-0.683-0.281L7.359,8.966
		c-1.054,0.783-2.339,1.315-3.664,1.315C1.506,10.281,0,8.765,0,6.586C0,3.293,3.293,0,6.586,0c2.18,0,3.695,1.506,3.695,3.695
		c0,1.325-0.532,2.61-1.315,3.665l3.564,3.564l0.964-0.964c-0.211-0.211-1.154-1.024-1.154-1.285c0-0.231,0.924-1.155,1.154-1.155
		c0.08,0,0.171,0.041,0.23,0.101c0.372,0.372,3.173,3.012,3.173,3.303C16.897,11.154,15.974,12.078,15.743,12.078z M6.426,1.928
		c-1.064,0-1.928,0.863-1.928,1.928c0,0.291,0.07,0.572,0.19,0.833C4.428,4.568,4.146,4.498,3.855,4.498
		c-1.064,0-1.928,0.863-1.928,1.928s0.863,1.928,1.928,1.928S5.783,7.49,5.783,6.426c0-0.291-0.07-0.572-0.19-0.833
		c0.261,0.121,0.542,0.191,0.833,0.191c1.064,0,1.928-0.863,1.928-1.928S7.49,1.928,6.426,1.928z"/>
    </symbol>

</svg>
